<svg aria-hidden="true" style="width:0;height:0;position:absolute;overflow:hidden" xmlns="http://www.w3.org/2000/svg"><defs><symbol fill="none" xmlns="http://www.w3.org/2000/svg" viewBox="0 0 12 12" id="search"><path d="M5.5 9.5a4 4 0 1 0 0-8 4 4 0 0 0 0 8ZM10.5 10.5 8.325 8.325" stroke="#fff" stroke-linecap="round" stroke-linejoin="round"/></symbol><symbol fill="none" xmlns="http://www.w3.org/2000/svg" viewBox="0 0 24 24" id="film"><path d="M19.82 2H4.18A2.18 2.18 0 0 0 2 4.18v15.64A2.18 2.18 0 0 0 4.18 22h15.64A2.18 2.18 0 0 0 22 19.82V4.18A2.18 2.18 0 0 0 19.82 2ZM7 2v20M17 2v20M2 12h20M2 7h5M2 17h5M17 17h5M17 7h5" stroke="#818181" stroke-width="2" stroke-linecap="round" stroke-linejoin="round"/></symbol><symbol fill="none" xmlns="http://www.w3.org/2000/svg" viewBox="0 0 30 30" id="close"><path d="m8 8 14 14M8 22 22 8" stroke="#000" stroke-width="2"/></symbol><symbol id="linkedin" viewBox="0 0 48 48" fill="none" xmlns="http://www.w3.org/2000/svg"><circle cx="24" cy="24" r="20" fill="#0077B5"/><path fill-rule="evenodd" clip-rule="evenodd" d="M18.775 14.284c0 1.245-.948 2.253-2.43 2.253-1.426 0-2.374-1.008-2.344-2.253-.03-1.306.918-2.284 2.372-2.284 1.454 0 2.373.978 2.402 2.284ZM14.12 32.819V18.316h4.507v14.502H14.12v.001ZM22.24 22.945c0-1.81-.06-3.352-.12-4.627h3.916l.208 1.987h.089c.593-.92 2.075-2.312 4.478-2.312 2.965 0 5.189 1.957 5.189 6.226v8.602h-4.507v-8.037c0-1.87-.652-3.144-2.283-3.144-1.246 0-1.987.86-2.283 1.69-.12.297-.178.711-.178 1.127v8.364h-4.507v-9.876h-.002Z" fill="#fff"/></symbol></defs></svg>