<svg aria-hidden="true" style="position: absolute; width: 0; height: 0; overflow: hidden;" version="1.1" xmlns="http://www.w3.org/2000/svg" xmlns:xlink="http://www.w3.org/1999/xlink">
<defs>
 <symbol fill="none" xmlns="http://www.w3.org/2000/svg" viewBox="0 0 12 12" id="search">
    <path d="M5.5 9.5C7.70914 9.5 9.5 7.70914 9.5 5.5C9.5 3.29086 7.70914 1.5 5.5 1.5C3.29086 1.5 1.5 3.29086 1.5 5.5C1.5 7.70914 3.29086 9.5 5.5 9.5Z" stroke="white" stroke-linecap="round" stroke-linejoin="round"></path>
    <path d="M10.5 10.5002L8.32495 8.3252" stroke="white" stroke-linecap="round" stroke-linejoin="round"></path>
  </symbol>
  <symbol fill="none" xmlns="http://www.w3.org/2000/svg" viewBox="0 0 24 24" id="film">
    <path d="M19.82 2H4.18C2.97602 2 2 2.97602 2 4.18V19.82C2 21.024 2.97602 22 4.18 22H19.82C21.024 22 22 21.024 22 19.82V4.18C22 2.97602 21.024 2 19.82 2Z" stroke="#818181" stroke-width="2" stroke-linecap="round" stroke-linejoin="round"></path>
    <path d="M7 2V22" stroke="#818181" stroke-width="2" stroke-linecap="round" stroke-linejoin="round"></path>
    <path d="M17 2V22" stroke="#818181" stroke-width="2" stroke-linecap="round" stroke-linejoin="round"></path>
    <path d="M2 12H22" stroke="#818181" stroke-width="2" stroke-linecap="round" stroke-linejoin="round"></path>
    <path d="M2 7H7" stroke="#818181" stroke-width="2" stroke-linecap="round" stroke-linejoin="round"></path>
    <path d="M2 17H7" stroke="#818181" stroke-width="2" stroke-linecap="round" stroke-linejoin="round"></path>
    <path d="M17 17H22" stroke="#818181" stroke-width="2" stroke-linecap="round" stroke-linejoin="round"></path>
    <path d="M17 7H22" stroke="#818181" stroke-width="2" stroke-linecap="round" stroke-linejoin="round"></path>
  </symbol>
  <symbol fill="none" xmlns="http://www.w3.org/2000/svg" viewBox="0 0 30 30" id="close">
    <path d="M8 8L22 22" stroke="black" stroke-width="2"/>
<path d="M8 22L22 8" stroke="black" stroke-width="2"/>
  </symbol>
  <symbol id="linkedin" width="30" height="30" viewBox="0 0 48 48" fill="none" xmlns="http://www.w3.org/2000/svg">
<circle cx="24" cy="24" r="20" fill="#0077B5"/>
<path fill-rule="evenodd" clip-rule="evenodd" d="M18.7747 14.2839C18.7747 15.529 17.8267 16.5366 16.3442 16.5366C14.9194 16.5366 13.9713 15.529 14.0007 14.2839C13.9713 12.9783 14.9193 12 16.3726 12C17.8267 12 18.7463 12.9783 18.7747 14.2839ZM14.1199 32.8191V18.3162H18.6271V32.8181H14.1199V32.8191Z" fill="white"/>
<path fill-rule="evenodd" clip-rule="evenodd" d="M22.2398 22.9446C22.2398 21.1356 22.1802 19.5935 22.1206 18.3181H26.0356L26.2437 20.305H26.3326C26.9258 19.3854 28.4084 17.9927 30.8106 17.9927C33.7757 17.9927 36 19.9501 36 24.219V32.821H31.4927V24.7838C31.4927 22.9143 30.8408 21.6399 29.2097 21.6399C27.9637 21.6399 27.2229 22.4999 26.9268 23.3297C26.8076 23.6267 26.7489 24.0412 26.7489 24.4574V32.821H22.2416V22.9446H22.2398Z" fill="white"/>
</symbol>
<symbol id="user" version="1.1" xmlns="http://www.w3.org/2000/svg"  viewBox="0 0 32 32">
<path d="M10 6c0-3.314 2.686-6 6-6s6 2.686 6 6c0 3.314-2.686 6-6 6s-6-2.686-6-6zM24.002 14h-1.107l-6.222 12.633 2.327-11.633-3-3-3 3 2.327 11.633-6.222-12.633h-1.107c-3.998 0-3.998 2.687-3.998 6v10h24v-10c0-3.313 0-6-3.998-6z"></path>
</symbol>
<symbol id="profile" version="1.1" xmlns="http://www.w3.org/2000/svg"  viewBox="0 0 32 32">
<path d="M27 0h-24c-1.65 0-3 1.35-3 3v26c0 1.65 1.35 3 3 3h24c1.65 0 3-1.35 3-3v-26c0-1.65-1.35-3-3-3zM26 28h-22v-24h22v24zM8 18h14v2h-14zM8 22h14v2h-14zM10 9c0-1.657 1.343-3 3-3s3 1.343 3 3c0 1.657-1.343 3-3 3s-3-1.343-3-3zM15 12h-4c-1.65 0-3 0.9-3 2v2h10v-2c0-1.1-1.35-2-3-2z"></path>
</symbol>
<symbol id="general" version="1.1" xmlns="http://www.w3.org/2000/svg" viewBox="0 0 32 32">
<path d="M27 0c2.761 0 5 2.239 5 5 0 1.126-0.372 2.164-1 3l-2 2-7-7 2-2c0.836-0.628 1.874-1 3-1zM2 23l-2 9 9-2 18.5-18.5-7-7-18.5 18.5zM22.362 11.362l-14 14-1.724-1.724 14-14 1.724 1.724z"></path>
</symbol>
<symbol id="key" version="1.1" xmlns="http://www.w3.org/2000/svg"  viewBox="0 0 32 32">
<path d="M22 0c-5.523 0-10 4.477-10 10 0 0.626 0.058 1.238 0.168 1.832l-12.168 12.168v6c0 1.105 0.895 2 2 2h2v-2h4v-4h4v-4h4l2.595-2.595c1.063 0.385 2.209 0.595 3.405 0.595 5.523 0 10-4.477 10-10s-4.477-10-10-10zM24.996 10.004c-1.657 0-3-1.343-3-3s1.343-3 3-3 3 1.343 3 3-1.343 3-3 3z"></path>
</symbol>
<symbol id="bin" version="1.1" xmlns="http://www.w3.org/2000/svg"  viewBox="0 0 32 32">
<path d="M4 10v20c0 1.1 0.9 2 2 2h18c1.1 0 2-0.9 2-2v-20h-22zM10 28h-2v-14h2v14zM14 28h-2v-14h2v14zM18 28h-2v-14h2v14zM22 28h-2v-14h2v14z"></path>
<path d="M26.5 4h-6.5v-2.5c0-0.825-0.675-1.5-1.5-1.5h-7c-0.825 0-1.5 0.675-1.5 1.5v2.5h-6.5c-0.825 0-1.5 0.675-1.5 1.5v2.5h26v-2.5c0-0.825-0.675-1.5-1.5-1.5zM18 4h-6v-1.975h6v1.975z"></path>
</symbol>
  <symbol aria-hidden="true" style="position:absolute; width:0; height:0" xmlns="http://www.w3.org/2000/svg" overflow="hidden" id="moon" viewBox="0 0 32 32">
    <path fill="currentColor" d="M17.701 32a15.97 15.97 0 0012.429-5.925c.442-.544-.04-1.339-.723-1.209-7.763 1.478-14.891-4.474-14.891-12.31 0-4.514 2.416-8.665 6.344-10.9.605-.345.453-1.262-.235-1.389-.879-.17-1.89-.267-2.923-.268-8.832 0-16 7.157-16 16 0 8.832 7.157 16 16 16z"/>
  </symbol>
  <symbol aria-hidden="true" style="position:absolute; width:0; height:0" xmlns="http://www.w3.org/2000/svg" overflow="hidden" id="sun" viewBox="0 0 32 32">
    <path fill="currentColor" d="M16 10c-3.306 0-6 2.694-6 6s2.694 6 6 6 6-2.694 6-6-2.694-6-6-6zm15.4 5.031l-5.919-2.956L27.575 5.8c.281-.85-.525-1.656-1.369-1.369l-6.275 2.094L16.969.6c-.4-.8-1.537-.8-1.938 0l-2.956 5.919-6.281-2.094c-.85-.281-1.656.525-1.369 1.369l2.094 6.275L.6 15.032c-.8.4-.8 1.538 0 1.938l5.919 2.956-2.094 6.281c-.281.85.525 1.656 1.369 1.369l6.275-2.094 2.956 5.919c.4.8 1.538.8 1.938 0l2.956-5.919 6.275 2.094c.85.281 1.656-.525 1.369-1.369l-2.094-6.275 5.919-2.956c.813-.406.813-1.544.012-1.944zm-9.744 6.625c-3.119 3.119-8.194 3.119-11.313 0s-3.119-8.194 0-11.313c3.119-3.119 8.194-3.119 11.313 0s3.119 8.194 0 11.313z"/>
  </symbol>
  <symbol id="icon-github" viewBox="0 0 32 32"><path  d="M32 16c0 8.837-7.163 16-16 16S0 24.837 0 16 7.163 0 16 0s16 7.163 16 16z"/><path d="M16 6.588c-5.169 0-9.412 4.242-9.412 9.412 0 4.411 3.095 8.419 7.206 9.412v-3.114a2.307 2.307 0 01-1.197-.03c-.556-.164-1.008-.535-1.344-1.1-.214-.361-.593-.752-.988-.723l-.097-1.099c.855-.073 1.595.521 2.034 1.259.195.328.419.52.708.605.278.082.578.043.926-.08.088-.698.407-.959.648-1.326v-.001c-2.451-.366-3.428-1.666-3.816-2.693-.514-1.363-.238-3.066.671-4.142.018-.021.05-.076.037-.114-.417-1.258.091-2.299.11-2.41.481.142.559-.143 2.089.786l.264.159c.111.066.076.028.186.02A8.031 8.031 0 0116 11.131a8.016 8.016 0 012.002.285l.086.009c-.007-.001.023-.005.075-.036 1.911-1.157 1.842-.779 2.355-.946.019.111.519 1.169.107 2.411-.056.171 1.657 1.739.708 4.256-.388 1.027-1.365 2.328-3.816 2.693v.001c.314.479.692.734.69 1.722v3.887c4.111-.993 7.206-5 7.206-9.412 0-5.169-4.242-9.412-9.412-9.412z"/></symbol>

</defs>
</svg>
