<svg aria-hidden="true" style="position: absolute; width: 0; height: 0; overflow: hidden;" version="1.1" xmlns="http://www.w3.org/2000/svg" xmlns:xlink="http://www.w3.org/1999/xlink">
<defs>
 <symbol fill="none" xmlns="http://www.w3.org/2000/svg" viewBox="0 0 12 12" id="search">
    <path d="M5.5 9.5C7.70914 9.5 9.5 7.70914 9.5 5.5C9.5 3.29086 7.70914 1.5 5.5 1.5C3.29086 1.5 1.5 3.29086 1.5 5.5C1.5 7.70914 3.29086 9.5 5.5 9.5Z" stroke="white" stroke-linecap="round" stroke-linejoin="round"></path>
    <path d="M10.5 10.5002L8.32495 8.3252" stroke="white" stroke-linecap="round" stroke-linejoin="round"></path>
  </symbol>
  <symbol fill="none" xmlns="http://www.w3.org/2000/svg" viewBox="0 0 24 24" id="film">
    <path d="M19.82 2H4.18C2.97602 2 2 2.97602 2 4.18V19.82C2 21.024 2.97602 22 4.18 22H19.82C21.024 22 22 21.024 22 19.82V4.18C22 2.97602 21.024 2 19.82 2Z" stroke="#818181" stroke-width="2" stroke-linecap="round" stroke-linejoin="round"></path>
    <path d="M7 2V22" stroke="#818181" stroke-width="2" stroke-linecap="round" stroke-linejoin="round"></path>
    <path d="M17 2V22" stroke="#818181" stroke-width="2" stroke-linecap="round" stroke-linejoin="round"></path>
    <path d="M2 12H22" stroke="#818181" stroke-width="2" stroke-linecap="round" stroke-linejoin="round"></path>
    <path d="M2 7H7" stroke="#818181" stroke-width="2" stroke-linecap="round" stroke-linejoin="round"></path>
    <path d="M2 17H7" stroke="#818181" stroke-width="2" stroke-linecap="round" stroke-linejoin="round"></path>
    <path d="M17 17H22" stroke="#818181" stroke-width="2" stroke-linecap="round" stroke-linejoin="round"></path>
    <path d="M17 7H22" stroke="#818181" stroke-width="2" stroke-linecap="round" stroke-linejoin="round"></path>
  </symbol>  
  <symbol fill="none" xmlns="http://www.w3.org/2000/svg" viewBox="0 0 30 30" id="close">
    <path d="M8 8L22 22" stroke="black" stroke-width="2"/>
<path d="M8 22L22 8" stroke="black" stroke-width="2"/>
  </symbol>
  <symbol id="linkedin" width="30" height="30" viewBox="0 0 48 48" fill="none" xmlns="http://www.w3.org/2000/svg">
<circle cx="24" cy="24" r="20" fill="#0077B5"/>
<path fill-rule="evenodd" clip-rule="evenodd" d="M18.7747 14.2839C18.7747 15.529 17.8267 16.5366 16.3442 16.5366C14.9194 16.5366 13.9713 15.529 14.0007 14.2839C13.9713 12.9783 14.9193 12 16.3726 12C17.8267 12 18.7463 12.9783 18.7747 14.2839ZM14.1199 32.8191V18.3162H18.6271V32.8181H14.1199V32.8191Z" fill="white"/>
<path fill-rule="evenodd" clip-rule="evenodd" d="M22.2398 22.9446C22.2398 21.1356 22.1802 19.5935 22.1206 18.3181H26.0356L26.2437 20.305H26.3326C26.9258 19.3854 28.4084 17.9927 30.8106 17.9927C33.7757 17.9927 36 19.9501 36 24.219V32.821H31.4927V24.7838C31.4927 22.9143 30.8408 21.6399 29.2097 21.6399C27.9637 21.6399 27.2229 22.4999 26.9268 23.3297C26.8076 23.6267 26.7489 24.0412 26.7489 24.4574V32.821H22.2416V22.9446H22.2398Z" fill="white"/>
</symbol>
</defs>
</svg>
